<svg height="512pt" viewBox="0 -31 512 512" width="512pt" xmlns="http://www.w3.org/2000/svg"><path d="m388.414062 123.585938h88.277344v44.136718h-88.277344zm0 0" fill="#7f8284"/><path d="m273.65625 70.621094h114.757812c9.738282.027344 17.625 7.914062 17.65625 17.65625v120.640625c0 1.910156.617188 3.769531 1.765626 5.296875l102.398437 136.535156c1.144531 1.527344 1.765625 3.386719 1.765625 5.296875v85.332031c0 4.875-3.953125 8.828125-8.828125 8.828125h-163.589844c-2.617187 0-5.101562-1.164062-6.78125-3.179687l-38.839843-46.609375c-1.675782-2.011719-4.160157-3.175781-6.78125-3.175781h-168.285157c-2.621093 0-5.105469 1.164062-6.78125 3.175781l-38.84375 46.609375c-1.675781 2.015625-4.160156 3.179687-6.78125 3.179687h-57.660156c-4.875 0-8.828125-3.953125-8.828125-8.828125v-353.101562c.0273438-9.742188 7.917969-17.628906 17.65625-17.65625zm0 0" fill="#56595e"/><path d="m485.515625 52.964844c14.628906 0 26.484375 11.855468 26.484375 26.484375v132.414062c0 14.625-11.855469 26.480469-26.484375 26.480469-14.625 0-26.480469-11.855469-26.480469-26.480469v-132.414062c0-14.628907 11.855469-26.484375 26.480469-26.484375zm0 0" fill="#95a5a5"/><path d="m132.414062 123.585938h-70.621093c-4.871094.015624-8.8125 3.957031-8.828125 8.828124v203.035157c.015625 4.867187 3.957031 8.8125 8.828125 8.828125h282.484375c4.867187-.015625 8.8125-3.960938 8.824218-8.828125v-203.035157c-.011718-4.871093-3.957031-8.8125-8.824218-8.828124h-70.621094" fill="#393f4a"/><path d="m185.378906 167.722656h35.3125v77.367188c0 1.367187-.320312 2.71875-.933594 3.945312l-16.722656 33.449219-16.722656-33.449219c-.613281-1.226562-.933594-2.578125-.933594-3.945312zm0 0" fill="#bdc3c7"/><path d="m132.414062 291.308594h141.242188c4.875 0 8.828125 3.953125 8.828125 8.828125v44.140625h-158.898437v-44.140625c0-4.875 3.953124-8.828125 8.828124-8.828125zm0 0" fill="#a5a5a4"/><path d="m432.550781 326.621094c0 9.75-7.902343 17.65625-17.652343 17.65625-9.753907 0-17.65625-7.90625-17.65625-17.65625s7.902343-17.65625 17.65625-17.65625c9.75 0 17.652343 7.90625 17.652343 17.65625zm0 0" fill="#7ed09e"/><path d="m432.550781 388.414062c0 9.75-7.902343 17.65625-17.652343 17.65625-9.753907 0-17.65625-7.90625-17.65625-17.65625s7.902343-17.65625 17.65625-17.65625c9.75 0 17.652343 7.90625 17.652343 17.65625zm0 0" fill="#ff5364"/><path d="m141.242188 273.65625c-4.859376 0-8.808594-3.929688-8.828126-8.789062.382813-9.480469-3.210937-18.691407-9.917968-25.40625-6.703125-6.714844-15.910156-10.316407-25.394532-9.945313-.046874.007813-.09375.007813-.140624 0h-.167969c-.035157 0-.089844-.007813-.128907-.003906-4.875-.117188-8.730468-4.164063-8.609374-9.039063.117187-4.875 4.164062-8.730468 9.039062-8.609375 18.195312-.027343 35.320312-4.996093 35.320312-8.828125 0-4.875 3.953126-8.828125 8.828126-8.828125s8.828124 3.953125 8.828124 8.828125c-.726562 10.058594-7.875 18.492188-17.683593 20.855469 11.269531 10.636719 17.664062 25.441406 17.683593 40.9375 0 4.875-3.953124 8.828125-8.828124 8.828125zm0 0" fill="#90bae1"/><path d="m264.828125 273.65625c-4.875 0-8.828125-3.953125-8.828125-8.828125.019531-15.496094 6.414062-30.300781 17.679688-40.9375-9.804688-2.363281-16.953126-10.796875-17.679688-20.855469 0-4.875 3.953125-8.828125 8.828125-8.828125s8.828125 3.953125 8.828125 8.828125c0 3.832032 17.125 8.800782 35.3125 8.828125 4.808594-.023437 8.746094 3.804688 8.863281 8.609375.117188 4.804688-3.628906 8.820313-8.429687 9.035156l-.125.007813h-.164063c-.050781 0-.09375 0-.144531 0-34.910156 0-35.308594 33.871094-35.308594 35.3125 0 2.339844-.929687 4.585937-2.585937 6.242187s-3.90625 2.585938-6.246094 2.585938zm0 0" fill="#90bae1"/><path d="m52.964844 176.550781h35.3125c4.875 0 8.824218 3.953125 8.824218 8.828125v70.621094c0 4.875-3.949218 8.828125-8.824218 8.828125h-35.3125zm0 0" fill="#a5a5a4"/><path d="m353.101562 264.828125h-35.308593c-4.875 0-8.828125-3.953125-8.828125-8.828125v-70.621094c0-4.875 3.953125-8.828125 8.828125-8.828125h35.308593zm0 0" fill="#a5a5a4"/><path d="m158.898438 141.242188h88.273437v26.480468c0 9.753906-7.902344 17.65625-17.65625 17.65625h-52.964844c-9.75 0-17.652343-7.902344-17.652343-17.65625zm0 0" fill="#f29c1f"/><path d="m141.242188 0h123.585937c4.875 0 8.828125 3.953125 8.828125 8.828125v123.585937c0 4.875-3.953125 8.828126-8.828125 8.828126h-123.585937c-4.875 0-8.828126-3.953126-8.828126-8.828126v-123.585937c0-4.875 3.953126-8.828125 8.828126-8.828125zm0 0" fill="#f0c419"/><g fill="#f29c1f"><path d="m203.035156 114.757812c-4.875 0-8.828125-3.953124-8.828125-8.828124v-70.621094c0-4.875 3.953125-8.824219 8.828125-8.824219s8.828125 3.949219 8.828125 8.824219v70.621094c0 4.875-3.953125 8.828124-8.828125 8.828124zm0 0"/><path d="m167.722656 114.757812c-4.875 0-8.824218-3.953124-8.824218-8.828124v-70.621094c0-4.875 3.949218-8.824219 8.824218-8.824219s8.828125 3.949219 8.828125 8.824219v70.621094c0 4.875-3.953125 8.828124-8.828125 8.828124zm0 0"/><path d="m238.34375 114.757812c-4.875 0-8.828125-3.953124-8.828125-8.828124v-70.621094c0-4.875 3.953125-8.824219 8.828125-8.824219s8.828125 3.949219 8.828125 8.824219v70.621094c0 4.875-3.953125 8.828124-8.828125 8.828124zm0 0"/></g></svg>