<?xml version="1.0" encoding="utf-8"?>
<!-- Generator: Adobe Illustrator 23.0.0, SVG Export Plug-In . SVG Version: 6.00 Build 0)  -->
<svg version="1.1" id="Слой_1" xmlns="http://www.w3.org/2000/svg" xmlns:xlink="http://www.w3.org/1999/xlink" x="0px" y="0px"
	 viewBox="0 0 512 512" style="enable-background:new 0 0 512 512;" xml:space="preserve">
<style type="text/css">
	.st0{fill:#A6A6A6;}
</style>
<path class="st0" d="M494.9,396.3l-1.9,0l-6.7-26.7V188.9c0-7-4.4-13.4-10.9-15.9l-11.6-4.5l-2.6-37.8c-0.6-8.9-8.1-15.9-17-15.9
	h-0.6V89.1c0-9.4-7.6-17.1-17.1-17.1H153.6c0-9.4-7.6-17.1-17.1-17.1H51.2c-9.4,0-17.1,7.6-17.1,17.1v17.1h-5c-4.5,0-8.9,1.8-12.1,5
	L5,106.2c-3.2,3.2-5,7.5-5,12.1v61.2c0,4.5,1.8,8.9,5,12.1l12.1,12.1c3.2,3.2,7.5,5,12.1,5h5v93.9c0,0.3,0.1,0.6,0.2,0.9
	c0,0.3-0.1,0.5,0,0.8l6.6,32.8c-3.9,0.8-6.7,4.2-6.7,8.2v24.6l-6.7,26.6h-1.9c-9.4,0-17.1,7.6-17.1,17.1V439
	c0,9.4,7.6,17.1,17.1,17.1h469.3c9.4,0,17.1-7.6,17.1-17.1v-25.6C512,404,504.4,396.3,494.9,396.3z M362.1,379.3H159.4l-10.2-25.6
	h228.3L362.1,379.3z M136.5,336.6H58.2L53.1,311h416.3v25.6H136.5z M196.3,162.4l-12.1,12.1h-30.6v-51.2h30.6l12.1,12.1V162.4z
	 M256,242.7v17.1h-68.3c-4.7,0-8.5,3.8-8.5,8.5c0,4.7,3.8,8.5,8.5,8.5H256v17.1H51.2v-51.2H256z M418.1,242.7h51.2v51.2H358.4v-17.1
	h59.7c4.7,0,8.5-3.8,8.5-8.5c0-4.7-3.8-8.5-8.5-8.5h-59.7v-17.1H418.1z M324.3,191.5h-34l0.3-21.4l16.6-12.7l17.1,13.1V191.5z
	 M281.6,208.6h59.7v85.3h-68.3v-85.3H281.6z M446.9,169.6c0.5,6.6,4.7,12.4,10.9,14.8l11.6,4.5v36.8h-42.7v-93.9h17.6L446.9,169.6z
	 M426.7,89.1v25.6c-9.4,0-17.1,7.6-17.1,17.1v93.9h-51.2v-17.1h8.5c4.7,0,8.5-3.8,8.5-8.5c0-4.7-3.8-8.5-8.5-8.5h-25.6v-21
	c0.1-5.5-2.6-10.7-7.1-13.9l-17.5-13.4c-5.9-3.9-13.6-3.8-19.4,0.3l-16.6,12.8c-4.8,3.2-7.6,8.5-7.6,14.2v21h-25.6
	c-4.7,0-8.5,3.8-8.5,8.5c0,4.7,3.8,8.5,8.5,8.5h8.5v17.1H153.6v-34.1h30.6c4.5,0,8.9-1.8,12.1-5l12.1-12.1h13.5
	c4.7,0,8.5-3.8,8.5-8.5c0-4.7-3.8-8.5-8.5-8.5h-8.5v-17.1h8.5c4.7,0,8.5-3.8,8.5-8.5c0-4.7-3.8-8.5-8.5-8.5h-13.5l-12.1-12.1
	c-3.2-3.2-7.5-5-12.1-5h-30.6V89.1H426.7z M51.2,72.1h85.3v153.6H51.2V72.1z M29.1,191.5l-12.1-12.1v-61.2l12.1-12.1h5v85.3H29.1z
	 M494.9,439H25.6v-25.6h1.9c7.8,0,14.7-5.3,16.6-12.9l6.6-26.6c0.4-1.4,0.5-2.8,0.5-4.2v-16h79.6l14.9,37.3l0,0.1
	c0.4,0.8,0.9,1.6,1.5,2.3c0.1,0.1,0.2,0.4,0.3,0.5c1.7,1.4,3.8,2.3,6,2.5l0.1,0h213.3c0.3,0,0.7-0.1,1-0.2c0.6-0.1,1.2-0.2,1.7-0.3
	c0.5-0.2,1-0.4,1.5-0.7c1-0.5,1.9-1.3,2.5-2.2c0.2-0.2,0.5-0.5,0.7-0.7l23.1-38.5h72v16c0,1.4,0.2,2.8,0.5,4.1l6.7,26.7
	c1.9,7.6,8.7,12.9,16.6,12.9h1.9V439z"/>
<path class="st0" d="M307.2,276.9c14.1,0,25.6-11.5,25.6-25.6c0-14.1-11.5-25.6-25.6-25.6c-14.1,0-25.6,11.5-25.6,25.6
	C281.6,265.4,293.1,276.9,307.2,276.9z M307.2,242.7c4.7,0,8.5,3.8,8.5,8.5c0,4.7-3.8,8.5-8.5,8.5c-4.7,0-8.5-3.8-8.5-8.5
	C298.7,246.6,302.5,242.7,307.2,242.7z"/>
<path class="st0" d="M93.9,200.1c14.1,0,25.6-11.5,25.6-25.6c0-14.1-11.5-25.6-25.6-25.6c-14.1,0-25.6,11.5-25.6,25.6
	C68.3,188.6,79.7,200.1,93.9,200.1z M93.9,165.9c4.7,0,8.5,3.8,8.5,8.5c0,4.7-3.8,8.5-8.5,8.5c-4.7,0-8.5-3.8-8.5-8.5
	C85.3,169.8,89.2,165.9,93.9,165.9z"/>
<path class="st0" d="M85.3,106.2h17.1c4.7,0,8.5-3.8,8.5-8.5c0-4.7-3.8-8.5-8.5-8.5H85.3c-4.7,0-8.5,3.8-8.5,8.5
	C76.8,102.4,80.6,106.2,85.3,106.2z"/>
<path class="st0" d="M85.3,131.8h17.1c4.7,0,8.5-3.8,8.5-8.5c0-4.7-3.8-8.5-8.5-8.5H85.3c-4.7,0-8.5,3.8-8.5,8.5
	C76.8,128,80.6,131.8,85.3,131.8z"/>
</svg>
