<svg height="512pt" viewBox="0 -57 512 512" width="512pt" xmlns="http://www.w3.org/2000/svg"><path d="m44.136719 141.242188h-22.824219c-2.34375 0-4.585938-.929688-6.242188-2.585938l-12.484374-12.484375c-1.65625-1.65625-2.585938-3.902344-2.585938-6.242187v-63.308594c0-2.339844.929688-4.585938 2.585938-6.242188l12.484374-12.484375c1.65625-1.652343 3.898438-2.585937 6.242188-2.585937h22.824219zm0 0" fill="#2980ba"/><path d="m141.242188 17.65625h291.308593c4.875 0 8.828125 3.949219 8.828125 8.828125v167.722656h-338.757812zm0 0" fill="#3f5c6c"/><path d="m485.515625 129.640625v55.738281h-61.792969v-114.757812c0-4.875 3.953125-8.828125 8.828125-8.828125h18.238281c4.640626 0 8.492188 3.59375 8.808594 8.226562l2.671875 39.132813c.234375 3.417968 2.429688 6.394531 5.628907 7.632812l11.972656 4.621094c3.402344 1.3125 5.644531 4.585938 5.644531 8.234375zm0 0" fill="#7f8c8d"/><path d="m379.585938 335.449219 26.484374-44.140625h79.445313v25.398437c0 .722657.089844 1.441407.265625 2.140625l6.890625 27.570313c.984375 3.929687 4.515625 6.683593 8.566406 6.683593h1.933594c4.875 0 8.828125 3.953126 8.828125 8.828126v26.484374c0 4.875-3.953125 8.828126-8.828125 8.828126h-476.6875c-4.878906 0-8.828125-3.953126-8.828125-8.828126v-26.484374c0-4.875 3.949219-8.828126 8.828125-8.828126h1.933594c4.050781 0 7.582031-2.753906 8.5625-6.683593l6.894531-27.570313c.175781-.699218.261719-1.417968.261719-2.140625v-25.398437h88.277343l17.65625 44.140625" fill="#3b97d3"/><path d="m485.515625 247.171875v44.136719h-441.378906l-8.828125-44.136719 155.21875-13.242187h139.773437zm0 0" fill="#2980ba"/><path d="m485.515625 247.171875v-70.621094h-450.207031v70.621094zm0 0" fill="#3b97d3"/><path d="m423.722656 220.691406h-238.34375c-4.875 0-8.828125-3.953125-8.828125-8.828125s3.953125-8.828125 8.828125-8.828125h238.34375c4.875 0 8.828125 3.953125 8.828125 8.828125s-3.953125 8.828125-8.828125 8.828125zm0 0" fill="#bdc3c7"/><path d="m44.136719 0h88.277343c4.875 0 8.828126 3.953125 8.828126 8.828125v167.722656h-105.933594v-167.722656c0-4.875 3.953125-8.828125 8.828125-8.828125zm0 0" fill="#285680"/><path d="m220.691406 79.449219h-67.683594c-4.875 0-8.828124-3.953125-8.828124-8.828125s3.953124-8.828125 8.828124-8.828125h67.683594c4.875 0 8.824219 3.953125 8.824219 8.828125s-3.949219 8.828125-8.824219 8.828125zm0 0" fill="#393f4a"/><path d="m220.691406 114.757812h-67.683594c-4.875 0-8.828124-3.953124-8.828124-8.828124s3.953124-8.828126 8.828124-8.828126h67.683594c4.875 0 8.824219 3.953126 8.824219 8.828126s-3.949219 8.828124-8.824219 8.828124zm0 0" fill="#393f4a"/><path d="m105.929688 114.757812c0 9.75-7.902344 17.65625-17.652344 17.65625-9.753906 0-17.65625-7.90625-17.65625-17.65625s7.902344-17.65625 17.65625-17.65625c9.75 0 17.652344 7.90625 17.652344 17.65625zm0 0" fill="#3b97d3"/><path d="m97.101562 44.136719h-17.652343c-4.875 0-8.828125-3.949219-8.828125-8.828125 0-4.875 3.953125-8.824219 8.828125-8.824219h17.652343c4.878907 0 8.828126 3.949219 8.828126 8.824219 0 4.878906-3.949219 8.828125-8.828126 8.828125zm0 0" fill="#f0c419"/><path d="m97.101562 70.621094h-17.652343c-4.875 0-8.828125-3.953125-8.828125-8.828125s3.953125-8.828125 8.828125-8.828125h17.652343c4.878907 0 8.828126 3.953125 8.828126 8.828125s-3.949219 8.828125-8.828126 8.828125zm0 0" fill="#e64c3c"/><path d="m181.722656 123.585938h-40.480468v-70.621094h40.480468c2.339844 0 4.585938.929687 6.242188 2.585937l12.484375 12.484375c1.65625 1.65625 2.585937 3.902344 2.585937 6.242188v27.996094c0 2.34375-.929687 4.585937-2.585937 6.242187l-12.484375 12.484375c-1.65625 1.65625-3.902344 2.585938-6.242188 2.585938zm0 0" fill="#95a5a5"/><path d="m264.828125 141.242188h88.273437v97.101562c0 4.875-3.949218 8.828125-8.824218 8.828125h-70.621094c-4.875 0-8.828125-3.953125-8.828125-8.828125zm0 0" fill="#285680"/><path d="m326.621094 194.207031c0 9.75-7.90625 17.65625-17.65625 17.65625s-17.65625-7.90625-17.65625-17.65625 7.90625-17.65625 17.65625-17.65625 17.65625 7.90625 17.65625 17.65625zm0 0" fill="#84b5cb"/><path d="m335.449219 141.242188h-52.964844v-30.585938c0-2.953125 1.472656-5.707031 3.929687-7.347656l17.65625-13.550782c2.964844-1.976562 6.828126-1.976562 9.792969 0l17.652344 13.550782c2.457031 1.640625 3.933594 4.394531 3.933594 7.347656zm0 0" fill="#95a5a5"/><path d="m370.757812 150.070312h-123.585937c-4.875 0-8.828125-3.953124-8.828125-8.828124s3.953125-8.828126 8.828125-8.828126h123.585937c4.875 0 8.828126 3.953126 8.828126 8.828126s-3.953126 8.828124-8.828126 8.828124zm0 0" fill="#393f4a"/></svg>