<svg height="464pt" viewBox="0 0 464 464" width="464pt" xmlns="http://www.w3.org/2000/svg"><path d="m48 0h368c26.507812 0 48 21.492188 48 48v32h-464v-32c0-26.507812 21.492188-48 48-48zm0 0" fill="#4398d1"/><path d="m464 48c0-26.507812-21.492188-48-48-48h-17.976562c-66.269532 41.871094-166.6875 66.28125-246.824219 80h312.800781zm0 0" fill="#3e8cc7"/><path d="m0 384h464v32c0 26.507812-21.492188 48-48 48h-368c-26.507812 0-48-21.492188-48-48zm0 0" fill="#4398d1"/><path d="m0 80h64v304h-64zm0 0" fill="#87ced9"/><path d="m400 80h64v304h-64zm0 0" fill="#87ced9"/><path d="m64 128h336v32h-336zm0 0" fill="#ffa230"/><g fill="#e3584b"><path d="m200 304h-16c-13.253906 0-24-10.746094-24-24s10.746094-24 24-24h88c4.417969 0 8-3.582031 8-8s-3.582031-8-8-8h-120c-13.253906 0-24-10.746094-24-24v-16h16v16c0 4.417969 3.582031 8 8 8h120c13.253906 0 24 10.746094 24 24s-10.746094 24-24 24h-88c-4.417969 0-8 3.582031-8 8s3.582031 8 8 8h16zm0 0"/><path d="m208 32h16v16h-16zm0 0"/><path d="m240 32h16v16h-16zm0 0"/><path d="m272 32h16v16h-16zm0 0"/><path d="m176 32h16v16h-16zm0 0"/><path d="m184 288h96v64h-96zm0 0"/></g><path d="m248 288h32v64h-32zm0 0" fill="#d64740"/><path d="m96 352h272v32h-272zm0 0" fill="#87ced9"/><path d="m336 352h32v32h-32zm0 0" fill="#71c4d1"/><path d="m160 176-16 24h-16l-16-24zm0 0" fill="#4398d1"/><path d="m112 112h48v64h-48zm0 0" fill="#87ced9"/><path d="m144 112h16v64h-16zm0 0" fill="#71c4d1"/><path d="m0 80h64v16h-64zm0 0" fill="#71c4d1"/><path d="m400 80h64v16h-64zm0 0" fill="#71c4d1"/><path d="m373.519531 384c-53.230469 39.390625-130.398437 64.398438-199.40625 80h241.886719c26.507812 0 48-21.492188 48-48v-32zm0 0" fill="#3e8cc7"/><path d="m160 128h24v32h-24zm0 0" fill="#f59731"/></svg>