<?xml version="1.0" encoding="utf-8"?>
<!-- Generator: Adobe Illustrator 23.0.0, SVG Export Plug-In . SVG Version: 6.00 Build 0)  -->
<svg version="1.1" id="Слой_1" xmlns="http://www.w3.org/2000/svg" xmlns:xlink="http://www.w3.org/1999/xlink" x="0px" y="0px"
	 viewBox="0 0 512 512" style="enable-background:new 0 0 512 512;" xml:space="preserve">
<style type="text/css">
	.st0{fill:#A6A6A6;}
</style>
<g id="Schedue">
	<path class="st0" d="M440,64h-32V48c0-17.7-14.3-32-32-32s-32,14.3-32,32v16h-64V48c0-17.7-14.3-32-32-32s-32,14.3-32,32v16h-64V48
		c0-17.7-14.3-32-32-32S88,30.3,88,48v16H56c-22.1,0-40,17.9-40,40v336c0,22.1,17.9,40,40,40h240c4.4,0,8-3.6,8-8s-3.6-8-8-8H56
		c-13.3,0-24-10.7-24-24l0,0V176h432v112c0,4.4,3.6,8,8,8s8-3.6,8-8V104C480,81.9,462.1,64,440,64z M360,48c0-8.8,7.2-16,16-16
		s16,7.2,16,16v48c0,8.8-7.2,16-16,16s-16-7.2-16-16V48z M232,48c0-8.8,7.2-16,16-16c8.8,0,16,7.2,16,16v48c0,8.8-7.2,16-16,16
		c-8.8,0-16-7.2-16-16V48z M104,48c0-8.8,7.2-16,16-16s16,7.2,16,16v48c0,8.8-7.2,16-16,16s-16-7.2-16-16V48z M32,160v-56
		c0-13.3,10.7-24,24-24h32v16c0,17.7,14.3,32,32,32s32-14.3,32-32V80h64v16c0,17.7,14.3,32,32,32s32-14.3,32-32V80h64v16
		c0,17.7,14.3,32,32,32s32-14.3,32-32V80h32c13.3,0,24,10.7,24,24v56H32z"/>
	<path class="st0" d="M488,328c4.4,0,8-3.6,8-8s-3.6-8-8-8h-32c-4.4,0-8,3.6-8,8v32c0,4.4,3.6,8,8,8s8-3.6,8-8v-10.5
		c27.8,39.8,18,94.5-21.7,122.3s-94.5,18-122.3-21.7c-27.8-39.8-18-94.5,21.7-122.3c23.7-16.5,53.9-20.4,81-10.3
		c4.1,1.5,8.8-0.6,10.3-4.7c1.5-4.1-0.6-8.8-4.7-10.3l0,0c-53.9-20.2-113.9,7.1-134.1,61c-20.2,53.9,7.1,113.9,61,134.1
		c53.9,20.2,113.9-7.1,134.1-61c12.7-33.9,6.9-72-15.4-100.6H488z"/>
	<path class="st0" d="M400,369.5V328c0-4.4-3.6-8-8-8s-8,3.6-8,8v41.5c-6.8,2.4-12.1,7.8-14.5,14.5H344c-4.4,0-8,3.6-8,8s3.6,8,8,8
		h25.5c4.4,12.5,18.1,19,30.5,14.7c12.5-4.4,19-18.1,14.7-30.5C412.2,377.3,406.9,371.9,400,369.5z M392,400c-4.4,0-8-3.6-8-8
		s3.6-8,8-8s8,3.6,8,8S396.4,400,392,400z"/>
	<path class="st0" d="M216,264h-32c-8.8,0-16-7.2-16-16v-24c0-8.8,7.2-16,16-16h32c8.8,0,16,7.2,16,16v24
		C232,256.8,224.8,264,216,264z M184,224v24h32v-24H184z"/>
	<path class="st0" d="M312,264h-32c-8.8,0-16-7.2-16-16v-24c0-8.8,7.2-16,16-16h32c8.8,0,16,7.2,16,16v24
		C328,256.8,320.8,264,312,264z M280,224v24h32v-24H280z"/>
	<path class="st0" d="M120,264H88c-8.8,0-16-7.2-16-16v-24c0-8.8,7.2-16,16-16h32c8.8,0,16,7.2,16,16v24
		C136,256.8,128.8,264,120,264z M88,224v24h32v-24H88z"/>
	<path class="st0" d="M408,264h-32c-8.8,0-16-7.2-16-16v-24c0-8.8,7.2-16,16-16h32c8.8,0,16,7.2,16,16v24
		C424,256.8,416.8,264,408,264z M376,224v24h32v-24H376z"/>
	<path class="st0" d="M216,352h-32c-8.8,0-16-7.2-16-16v-24c0-8.8,7.2-16,16-16h32c8.8,0,16,7.2,16,16v24
		C232,344.8,224.8,352,216,352z M184,312v24h32v-24H184z"/>
	<path class="st0" d="M280,352c-8.8,0-16-7.2-16-16v-24c0-8.8,7.2-16,16-16h24c4.4,0,8,3.6,8,8s-3.6,8-8,8h-24v24c4.4,0,8,3.6,8,8
		S284.4,352,280,352z"/>
	<path class="st0" d="M120,352H88c-8.8,0-16-7.2-16-16v-24c0-8.8,7.2-16,16-16h32c8.8,0,16,7.2,16,16v24
		C136,344.8,128.8,352,120,352z M88,312v24h32v-24H88z"/>
	<path class="st0" d="M216,440h-32c-8.8,0-16-7.2-16-16v-24c0-8.8,7.2-16,16-16h32c8.8,0,16,7.2,16,16v24
		C232,432.8,224.8,440,216,440z M184,400v24h32v-24H184z"/>
	<path class="st0" d="M120,440H88c-8.8,0-16-7.2-16-16v-24c0-8.8,7.2-16,16-16h32c8.8,0,16,7.2,16,16v24
		C136,432.8,128.8,440,120,440z M88,400v24h32v-24H88z"/>
</g>
</svg>
